<svg width="50" height="50" viewBox="0 0 50 50" fill="none" xmlns="http://www.w3.org/2000/svg">
<mask id="path-1-inside-1_226_548" fill="white">
<path d="M13.6365 0H30.6819V30.6818H13.6365V0Z"/>
</mask>
<path d="M13.6365 -0.46875C13.6365 -0.15625 13.6365 0.15625 13.6365 0.46875C15.2274 0.520833 16.8183 0.570312 18.4092 0.617188C22.5001 0.737723 26.591 0.84104 30.6819 0.927136L29.7548 0C29.5395 10.2273 29.4319 20.4545 29.4319 30.6818L30.6819 29.4318C25.0001 29.4318 19.3183 29.465 13.6365 29.5315L14.7868 30.6818C14.6858 22.0455 14.5081 13.4091 14.2537 4.77273C14.2068 3.18182 14.1573 1.59091 14.1052 0C13.7927 0 13.4802 0 13.1677 0C13.1156 1.59091 13.0662 3.18182 13.0193 4.77273C12.7648 13.4091 12.5871 22.0455 12.4861 30.6818L12.4997 31.8455L13.6365 31.8322C19.3183 31.8986 25.0001 31.9318 30.6819 31.9318C30.6819 31.9318 30.6819 31.9318 30.6819 31.9318H31.9319V30.6818C31.9319 20.4545 31.8243 10.2273 31.6091 0L31.5892 -0.94623L30.6819 -0.927136C26.591 -0.84104 22.5001 -0.737723 18.4092 -0.617188C16.8183 -0.570312 15.2274 -0.520833 13.6365 -0.46875ZM13.6365 0.46875V-0.46875L13.1529 -0.452919L13.1677 0H14.1052L13.6365 0.46875Z" fill="#777067" mask="url(#path-1-inside-1_226_548)"/>
<mask id="path-3-inside-2_226_548" fill="white">
<path d="M32.9546 40.9091H50V10.2272H32.9546V40.9091Z"/>
</mask>
<path d="M32.9546 41.3778C32.9546 41.0653 32.9546 40.7528 32.9546 40.4403C34.5455 40.3882 36.1364 40.3387 37.7273 40.2919C41.8182 40.1713 45.9091 40.068 50 39.9819L49.0729 40.9091C48.8577 30.6818 48.75 20.4545 48.75 10.2272L50 11.4772C44.3182 11.4772 38.6364 11.444 32.9546 11.3776L34.1049 10.2272C34.004 18.8636 33.8262 27.5 33.5718 36.1363C33.5249 37.7272 33.4754 39.3181 33.4233 40.9091C33.1108 40.9091 32.7983 40.9091 32.4858 40.9091C32.4338 39.3181 32.3843 37.7272 32.3374 36.1363C32.0829 27.5 31.9052 18.8636 31.8042 10.2272L31.8178 9.0636L32.9546 9.07689C38.6364 9.01046 44.3182 8.97724 50 8.97724C50 8.97724 50 8.97724 50 8.97724H51.25V10.2272C51.25 20.4545 51.1424 30.6818 50.9272 40.9091L50.9073 41.8553L50 41.8362C45.9091 41.7501 41.8182 41.6468 37.7273 41.5262C36.1364 41.4794 34.5455 41.4299 32.9546 41.3778ZM32.9546 40.4403V41.3778L32.471 41.362L32.4858 40.9091H33.4233L32.9546 40.4403Z" fill="#484240" mask="url(#path-3-inside-2_226_548)"/>
<mask id="path-5-inside-3_226_548" fill="white">
<path d="M30.6819 32.9546V50H6.67572e-05V32.9546H30.6819Z"/>
</mask>
<path d="M31.1506 32.9546C30.8381 32.9546 30.5256 32.9546 30.2131 32.9546C30.1611 34.5455 30.1116 36.1364 30.0647 37.7273C29.9442 41.8182 29.8408 45.9091 29.7547 50L30.6819 49.0729C20.4546 48.8577 10.2273 48.75 6.67572e-05 48.75L1.25007 50C1.25007 44.3182 1.21685 38.6364 1.15042 32.9546L6.67572e-05 34.1049C8.63643 34.004 17.2728 33.8262 25.9092 33.5718C27.5001 33.5249 29.091 33.4754 30.6819 33.4233C30.6819 33.1108 30.6819 32.7983 30.6819 32.4858C29.091 32.4338 27.5001 32.3843 25.9092 32.3374C17.2728 32.0829 8.63643 31.9052 6.67572e-05 31.8042L-1.16357 31.8178L-1.15028 32.9546C-1.21672 38.6364 -1.24993 44.3182 -1.24993 50C-1.24993 50 -1.24993 50 -1.24993 50V51.25H6.67572e-05C10.2273 51.25 20.4546 51.1424 30.6819 50.9272L31.6281 50.9073L31.609 50C31.5229 45.9091 31.4196 41.8182 31.2991 37.7273C31.2522 36.1364 31.2027 34.5455 31.1506 32.9546ZM30.2131 32.9546H31.1506L31.1348 32.471L30.6819 32.4858V33.4233L30.2131 32.9546Z" fill="#2A2725" mask="url(#path-5-inside-3_226_548)"/>
</svg>
