<svg width="60" height="60" viewBox="0 0 60 60" fill="none" xmlns="http://www.w3.org/2000/svg">
<rect width="60" height="60" rx="10" fill="#FAF9F7"/>
<mask id="path-2-inside-1_442_126" fill="white">
<path d="M18.6365 5H35.6819V35.6818H18.6365V5Z"/>
</mask>
<path d="M18.6365 3.875C18.6365 4.625 18.6365 5.375 18.6365 6.125C20.2274 6.25 21.8183 6.36875 23.4092 6.48125C27.5001 6.77054 31.591 7.01849 35.6819 7.22513L33.4568 5C32.9402 15.2273 32.6819 25.4545 32.6819 35.6818C32.6819 35.6818 32.6819 35.6818 32.6819 35.6818L35.6819 32.6818C30.0001 32.6818 24.3183 32.7615 18.6365 32.921L21.3973 35.6818C21.155 27.0455 20.7284 18.4091 20.1177 9.77273C20.0052 8.18182 19.8865 6.59091 19.7615 5C19.0115 5 18.2615 5 17.5115 5C17.3865 6.59091 17.2677 8.18182 17.1552 9.77273C16.5445 18.4091 16.118 27.0455 15.8756 35.6818L15.9552 38.5179L18.6365 38.4427C24.3183 38.6021 30.0001 38.6818 35.6819 38.6818C35.6819 38.6818 35.6819 38.6818 35.6819 38.6818H38.6819V35.6818C38.6819 25.4545 38.4236 15.2273 37.9071 5L37.7893 2.66843L35.6819 2.77487C31.591 2.98151 27.5001 3.22946 23.4092 3.51875C21.8183 3.63125 20.2274 3.75 18.6365 3.875ZM18.6365 6.125V3.875L17.4305 3.96975L17.5115 5H19.7615L18.6365 6.125Z" fill="#777067" mask="url(#path-2-inside-1_442_126)"/>
<mask id="path-4-inside-2_442_126" fill="white">
<path d="M37.9546 45.9092H55V15.2274H37.9546V45.9092Z"/>
</mask>
<path d="M37.9546 47.0342C37.9546 46.2842 37.9546 45.5342 37.9546 44.7842C39.5455 44.6592 41.1364 44.5404 42.7273 44.4279C46.8182 44.1386 50.9091 43.8907 55 43.6841L52.7749 45.9092C52.2583 35.6819 52 25.4546 52 15.2274C52 15.2274 52 15.2274 52 15.2274L55 18.2274C49.3182 18.2274 43.6364 18.1476 37.9546 17.9882L40.7154 15.2274C40.4731 23.8637 40.0466 32.5001 39.4358 41.1365C39.3233 42.7274 39.2046 44.3183 39.0796 45.9092C38.3296 45.9092 37.5796 45.9092 36.8296 45.9092C36.7046 44.3183 36.5858 42.7274 36.4733 41.1365C35.8626 32.5001 35.4361 23.8637 35.1937 15.2274L35.2733 12.3913L37.9546 12.4665C43.6364 12.3071 49.3182 12.2274 55 12.2274C55 12.2274 55 12.2274 55 12.2274H58V15.2274C58 25.4546 57.7418 35.6819 57.2252 45.9092L57.1074 48.2408L55 48.1343C50.9091 47.9277 46.8182 47.6797 42.7273 47.3904C41.1364 47.2779 39.5455 47.1592 37.9546 47.0342ZM37.9546 44.7842V47.0342L36.7486 46.9394L36.8296 45.9092H39.0796L37.9546 44.7842Z" fill="#484240" mask="url(#path-4-inside-2_442_126)"/>
<mask id="path-6-inside-3_442_126" fill="white">
<path d="M35.6819 37.9546V55H5.00007V37.9546H35.6819Z"/>
</mask>
<path d="M36.8069 37.9546C36.0569 37.9546 35.3069 37.9546 34.5569 37.9546C34.4319 39.5455 34.3131 41.1364 34.2006 42.7273C33.9113 46.8182 33.6634 50.9091 33.4568 55L35.6819 52.7749C25.4546 52.2583 15.2273 52 5.00007 52C5.00007 52 5.00007 52 5.00007 52L8.00007 55C8.00007 49.3182 7.92035 43.6364 7.76091 37.9546L5.00007 40.7154C13.6364 40.4731 22.2728 40.0466 30.9092 39.4358C32.5001 39.3233 34.091 39.2046 35.6819 39.0796C35.6819 38.3296 35.6819 37.5796 35.6819 36.8296C34.091 36.7046 32.5001 36.5858 30.9092 36.4733C22.2728 35.8626 13.6364 35.4361 5.00007 35.1937L2.16399 35.2733L2.23922 37.9546C2.07978 43.6364 2.00006 49.3182 2.00007 55C2.00007 55 2.00007 55 2.00007 55V58H5.00007C15.2273 58 25.4546 57.7418 35.6819 57.2252L38.0135 57.1074L37.907 55C37.7004 50.9091 37.4524 46.8182 37.1631 42.7273C37.0506 41.1364 36.9319 39.5455 36.8069 37.9546ZM34.5569 37.9546H36.8069L36.7121 36.7486L35.6819 36.8296V39.0796L34.5569 37.9546Z" fill="#2A2725" mask="url(#path-6-inside-3_442_126)"/>
</svg>
