<svg width="97" height="35" viewBox="0 0 97 35" fill="none" xmlns="http://www.w3.org/2000/svg">
<mask id="path-1-inside-1_441_86" fill="white">
<path d="M9.54541 0H21.4772V21.4773H9.54541V0Z"/>
</mask>
<path d="M9.54541 -0.46875C9.54541 -0.15625 9.54541 0.15625 9.54541 0.46875C10.659 0.520833 11.7727 0.570312 12.8863 0.617188C15.75 0.737723 18.6136 0.84104 21.4772 0.927136L20.5501 0C20.3348 7.15909 20.2272 14.3182 20.2272 21.4773L21.4772 20.2273C17.5 20.2273 13.5227 20.2605 9.54541 20.3269L10.6958 21.4773C10.5948 15.4318 10.4171 9.38636 10.1626 3.34091C10.1157 2.22727 10.0662 1.11364 10.0142 0C9.70166 0 9.38916 0 9.07666 0C9.02458 1.11364 8.9751 2.22727 8.92822 3.34091C8.67376 9.38636 8.49604 15.4318 8.39506 21.4773L8.41459 22.6465L9.54541 22.6276C13.5227 22.6941 17.5 22.7273 21.4772 22.7273C21.4772 22.7273 21.4772 22.7273 21.4772 22.7273H22.7272V21.4773C22.7272 14.3182 22.6196 7.15909 22.4044 0L22.3757 -0.954149L21.4772 -0.927136C18.6136 -0.84104 15.75 -0.737723 12.8863 -0.617188C11.7727 -0.570312 10.659 -0.520833 9.54541 -0.46875ZM9.54541 0.46875V-0.46875L9.05581 -0.445852L9.07666 0H10.0142L9.54541 0.46875Z" fill="#9E9890" mask="url(#path-1-inside-1_441_86)"/>
<mask id="path-3-inside-2_441_86" fill="white">
<path d="M23.0681 28.6367H34.9999V7.15944H23.0681V28.6367Z"/>
</mask>
<path d="M23.0681 29.1055C23.0681 28.793 23.0681 28.4805 23.0681 28.168C24.1818 28.1159 25.2954 28.0664 26.409 28.0195C29.2727 27.899 32.1363 27.7957 34.9999 27.7096L34.0728 28.6367C33.8576 21.4776 33.7499 14.3185 33.7499 7.15944L34.9999 8.40944C31.0227 8.40944 27.0454 8.37623 23.0681 8.3098L24.2185 7.15944C24.1175 13.2049 23.9398 19.2504 23.6853 25.2958C23.6384 26.4094 23.5889 27.5231 23.5369 28.6367C23.2244 28.6367 22.9119 28.6367 22.5994 28.6367C22.5473 27.5231 22.4978 26.4094 22.4509 25.2958C22.1965 19.2504 22.0187 13.2049 21.9178 7.15944L21.9373 5.99021L23.0681 6.00909C27.0454 5.94266 31.0227 5.90944 34.9999 5.90944C34.9999 5.90944 34.9999 5.90944 34.9999 5.90944H36.2499V7.15944C36.2499 14.3185 36.1423 21.4776 35.9271 28.6367L35.8984 29.5909L34.9999 29.5639C32.1363 29.4778 29.2727 29.3744 26.409 29.2539C25.2954 29.207 24.1818 29.1576 23.0681 29.1055ZM23.0681 28.168V29.1055L22.5785 29.0826L22.5994 28.6367H23.5369L23.0681 28.168Z" fill="#C8C4BF" mask="url(#path-3-inside-2_441_86)"/>
<mask id="path-5-inside-3_441_86" fill="white">
<path d="M21.4773 23.0681V34.9999H2.09808e-05V23.0681H21.4773Z"/>
</mask>
<path d="M21.946 23.0681C21.6335 23.0681 21.321 23.0681 21.0085 23.0681C20.9565 24.1818 20.907 25.2954 20.8601 26.409C20.7396 29.2727 20.6363 32.1363 20.5502 34.9999L21.4773 34.0728C14.3182 33.8576 7.15911 33.7499 2.09808e-05 33.7499L1.25002 34.9999C1.25002 31.0227 1.2168 27.0454 1.15037 23.0681L2.09808e-05 24.2185C6.04548 24.1175 12.0909 23.9398 18.1364 23.6853C19.25 23.6384 20.3637 23.5889 21.4773 23.5369C21.4773 23.2244 21.4773 22.9119 21.4773 22.5994C20.3637 22.5473 19.25 22.4978 18.1364 22.4509C12.0909 22.1965 6.04548 22.0187 2.09808e-05 21.9178L-1.16922 21.9373L-1.15033 23.0681C-1.21676 27.0454 -1.24998 31.0227 -1.24998 34.9999C-1.24998 34.9999 -1.24998 34.9999 -1.24998 34.9999V36.2499H2.09808e-05C7.15911 36.2499 14.3182 36.1423 21.4773 35.9271L22.4314 35.8984L22.4044 34.9999C22.3183 32.1363 22.215 29.2727 22.0945 26.409C22.0476 25.2954 21.9981 24.1818 21.946 23.0681ZM21.0085 23.0681H21.946L21.9231 22.5785L21.4773 22.5994V23.5369L21.0085 23.0681Z" fill="#C8C4BF" mask="url(#path-5-inside-3_441_86)"/>
<path d="M93.4321 25H91.0224C90.9746 25 90.9506 24.9727 90.9506 24.918L90.9711 18.9502L88.1616 10.4702C88.1479 10.4155 88.1684 10.3882 88.2231 10.3882H90.561C90.6293 10.3882 90.6704 10.4155 90.684 10.4702L92.2324 16.1201L93.8115 10.4702C93.8251 10.4155 93.8593 10.3882 93.914 10.3882H96.2724C96.3271 10.3882 96.3476 10.4155 96.3339 10.4702L93.4936 18.8682L93.5141 24.918C93.5141 24.9727 93.4868 25 93.4321 25Z" fill="#E3E1DE"/>
<path d="M82.1631 25H79.8047C79.7363 25 79.7021 24.9658 79.7021 24.8975L79.7432 10.4702C79.7432 10.4155 79.7705 10.3882 79.8252 10.3882H83.8652C85.1504 10.3882 86.1655 10.7812 86.9106 11.5674C87.6626 12.3467 88.0386 13.4097 88.0386 14.7563C88.0386 15.7407 87.8438 16.5986 87.4541 17.3301C87.0576 18.0547 86.5449 18.6152 85.916 19.0117C85.2871 19.4082 84.6035 19.6064 83.8652 19.6064H82.2656V24.8975C82.2656 24.9658 82.2314 25 82.1631 25ZM83.8652 12.8799L82.2656 12.9004V17.0635H83.8652C84.3096 17.0635 84.6958 16.8516 85.0239 16.4277C85.3521 15.9971 85.5161 15.4399 85.5161 14.7563C85.5161 14.2095 85.3691 13.7617 85.0752 13.4131C84.7812 13.0576 84.3779 12.8799 83.8652 12.8799Z" fill="#E3E1DE"/>
<path d="M70.8838 25H68.5049C68.4502 25 68.4229 24.9658 68.4229 24.8975L68.4639 10.4702C68.4639 10.4155 68.4912 10.3882 68.5459 10.3882H71.1094C71.1641 10.3882 71.2119 10.4155 71.2529 10.4702L73.1704 13.2388L75.0776 10.4702C75.1187 10.4155 75.1699 10.3882 75.2314 10.3882H77.8052C77.8667 10.3882 77.8975 10.4155 77.8975 10.4702L77.9385 24.8975C77.9385 24.9658 77.9111 25 77.8564 25H75.4775C75.4229 25 75.3955 24.9658 75.3955 24.8975L75.375 14.1821L73.1704 17.3813L70.9863 14.1821L70.9658 24.8975C70.9658 24.9658 70.9385 25 70.8838 25Z" fill="#E3E1DE"/>
<path d="M62.6294 25.2051C61.8911 25.2051 61.2075 25.0137 60.5786 24.6309C59.9497 24.248 59.4473 23.7354 59.0713 23.0928C58.7021 22.4434 58.5176 21.7358 58.5176 20.9702L58.5586 10.4702C58.5586 10.4155 58.5859 10.3882 58.6406 10.3882H60.999C61.0537 10.3882 61.0811 10.4155 61.0811 10.4702V20.9702C61.0811 21.4419 61.2314 21.8452 61.5322 22.1802C61.833 22.5083 62.1987 22.6724 62.6294 22.6724C63.0806 22.6724 63.4565 22.5083 63.7573 22.1802C64.0581 21.8452 64.2085 21.4419 64.2085 20.9702V10.4702C64.2085 10.4155 64.2358 10.3882 64.2905 10.3882H66.6489C66.7036 10.3882 66.731 10.4155 66.731 10.4702L66.772 20.9702C66.772 21.7427 66.5874 22.4536 66.2183 23.103C65.8423 23.7456 65.3433 24.2583 64.7212 24.6411C64.0991 25.0171 63.4019 25.2051 62.6294 25.2051Z" fill="#E3E1DE"/>
<path d="M51.0938 25H48.7148C48.6602 25 48.6328 24.9658 48.6328 24.8975L48.6738 10.4702C48.6738 10.4155 48.7012 10.3882 48.7559 10.3882H53.001C53.7598 10.3882 54.457 10.5728 55.0928 10.9419C55.7285 11.311 56.2344 11.8066 56.6104 12.4287C56.9932 13.0508 57.1846 13.7549 57.1846 14.541C57.1846 15.0537 57.106 15.5186 56.9487 15.9355C56.7915 16.3525 56.6069 16.7046 56.395 16.9917C56.1899 17.2788 56.002 17.4907 55.8311 17.6274C56.5898 18.4683 56.9692 19.4561 56.9692 20.5908L56.9897 24.8975C56.9897 24.9658 56.9556 25 56.8872 25H54.5083C54.4536 25 54.4263 24.9795 54.4263 24.9385V20.5908C54.4263 20.085 54.2485 19.6475 53.8931 19.2783C53.5376 18.9092 53.1001 18.7246 52.5806 18.7246H51.1963L51.1758 24.8975C51.1758 24.9658 51.1484 25 51.0938 25ZM53.001 12.9004H51.1963V16.2021H53.001C53.4316 16.2021 53.8145 16.0415 54.1494 15.7202C54.4912 15.3989 54.6621 15.0059 54.6621 14.541C54.6621 14.0967 54.498 13.7139 54.1699 13.3926C53.8418 13.0645 53.4521 12.9004 53.001 12.9004Z" fill="#E3E1DE"/>
<path d="M43.0239 25.2051C42.2651 25.2051 41.5815 25.0171 40.9731 24.6411C40.3579 24.2651 39.8623 23.7593 39.4863 23.1235C39.1172 22.4878 38.9326 21.7769 38.9326 20.9907V14.3359C38.9326 13.5703 39.1206 12.873 39.4966 12.2441C39.8657 11.6084 40.3613 11.1025 40.9834 10.7266C41.6055 10.3438 42.2856 10.1523 43.0239 10.1523C43.7964 10.1523 44.4937 10.3369 45.1157 10.7061C45.7378 11.082 46.23 11.5845 46.5923 12.2134C46.9614 12.8423 47.146 13.5498 47.146 14.3359V15.2998C47.146 15.3545 47.1118 15.3818 47.0435 15.3818H44.6851C44.6304 15.3818 44.603 15.3545 44.603 15.2998V14.5C44.603 13.9668 44.4526 13.5259 44.1519 13.1772C43.8511 12.8286 43.4751 12.6543 43.0239 12.6543C42.6206 12.6543 42.2617 12.8218 41.9473 13.1567C41.6328 13.4917 41.4756 13.8848 41.4756 14.3359V20.9907C41.4756 21.4487 41.6294 21.8452 41.937 22.1802C42.2446 22.5083 42.6069 22.6724 43.0239 22.6724C43.4751 22.6724 43.8511 22.5117 44.1519 22.1904C44.4526 21.8623 44.603 21.4624 44.603 20.9907V19.9551H43.1367C43.0615 19.9551 43.0239 19.9209 43.0239 19.8525V17.5044C43.0239 17.436 43.0615 17.4019 43.1367 17.4019H47.064C47.1187 17.4019 47.146 17.436 47.146 17.5044V20.9907C47.146 21.7769 46.9614 22.4878 46.5923 23.1235C46.2163 23.7593 45.7207 24.2651 45.1055 24.6411C44.4902 25.0171 43.7964 25.2051 43.0239 25.2051Z" fill="#E3E1DE"/>
</svg>
