<svg width="58" height="72" viewBox="0 0 58 72" fill="none" xmlns="http://www.w3.org/2000/svg">
<mask id="path-1-inside-1_441_78" fill="white">
<path d="M17.7039 0H34.7493V30.6818H17.7039V0Z"/>
</mask>
<path d="M17.7039 -0.46875C17.7039 -0.15625 17.7039 0.15625 17.7039 0.46875C19.2948 0.520833 20.8857 0.570312 22.4766 0.617188C26.5675 0.737723 30.6584 0.84104 34.7493 0.927136L33.8222 0C33.6069 10.2273 33.4993 20.4545 33.4993 30.6818L34.7493 29.4318C29.0675 29.4318 23.3857 29.465 17.7039 29.5315L18.8542 30.6818C18.7532 22.0455 18.5755 13.4091 18.321 4.77273C18.2742 3.18182 18.2247 1.59091 18.1726 0C17.8601 0 17.5476 0 17.2351 0C17.183 1.59091 17.1335 3.18182 17.0867 4.77273C16.8322 13.4091 16.6545 22.0455 16.5535 30.6818L16.5671 31.8455L17.7039 31.8322C23.3857 31.8986 29.0675 31.9318 34.7493 31.9318C34.7493 31.9318 34.7493 31.9318 34.7493 31.9318H35.9993V30.6818C35.9993 20.4545 35.8917 10.2273 35.6764 0L35.6565 -0.94623L34.7493 -0.927136C30.6584 -0.84104 26.5675 -0.737723 22.4766 -0.617188C20.8857 -0.570312 19.2948 -0.520833 17.7039 -0.46875ZM17.7039 0.46875V-0.46875L17.2203 -0.452919L17.2351 0H18.1726L17.7039 0.46875Z" fill="#9E9890" mask="url(#path-1-inside-1_441_78)"/>
<mask id="path-3-inside-2_441_78" fill="white">
<path d="M37.022 40.9092H54.0674V10.2274H37.022V40.9092Z"/>
</mask>
<path d="M37.022 41.3779C37.022 41.0654 37.022 40.7529 37.022 40.4404C38.6129 40.3883 40.2038 40.3389 41.7947 40.292C45.8856 40.1715 49.9765 40.0681 54.0674 39.982L53.1403 40.9092C52.925 30.6819 52.8174 20.4546 52.8174 10.2274L54.0674 11.4774C48.3856 11.4774 42.7038 11.4441 37.022 11.3777L38.1723 10.2274C38.0713 18.8637 37.8936 27.5001 37.6392 36.1365C37.5923 37.7274 37.5428 39.3183 37.4907 40.9092C37.1782 40.9092 36.8657 40.9092 36.5532 40.9092C36.5011 39.3183 36.4517 37.7274 36.4048 36.1365C36.1503 27.5001 35.9726 18.8637 35.8716 10.2274L35.8852 9.06372L37.022 9.07701C42.7038 9.01058 48.3856 8.97736 54.0674 8.97736C54.0674 8.97736 54.0674 8.97736 54.0674 8.97736H55.3174V10.2274C55.3174 20.4546 55.2098 30.6819 54.9946 40.9092L54.9746 41.8554L54.0674 41.8363C49.9765 41.7502 45.8856 41.6469 41.7947 41.5264C40.2038 41.4795 38.6129 41.43 37.022 41.3779ZM37.022 40.4404V41.3779L36.5384 41.3621L36.5532 40.9092H37.4907L37.022 40.4404Z" fill="#C8C4BF" mask="url(#path-3-inside-2_441_78)"/>
<mask id="path-5-inside-3_441_78" fill="white">
<path d="M34.7493 32.9546V50H4.06745V32.9546H34.7493Z"/>
</mask>
<path d="M35.218 32.9546C34.9055 32.9546 34.593 32.9546 34.2805 32.9546C34.2284 34.5455 34.179 36.1364 34.1321 37.7273C34.0115 41.8182 33.9082 45.9091 33.8221 50L34.7493 49.0729C24.522 48.8577 14.2947 48.75 4.06745 48.75L5.31745 50C5.31745 44.3182 5.28423 38.6364 5.2178 32.9546L4.06745 34.1049C12.7038 34.004 21.3402 33.8262 29.9765 33.5718C31.5675 33.5249 33.1584 33.4754 34.7493 33.4233C34.7493 33.1108 34.7493 32.7983 34.7493 32.4858C33.1584 32.4338 31.5675 32.3843 29.9765 32.3374C21.3402 32.0829 12.7038 31.9052 4.06745 31.8042L2.90381 31.8178L2.9171 32.9546C2.85067 38.6364 2.81745 44.3182 2.81745 50C2.81745 50 2.81745 50 2.81745 50V51.25H4.06745C14.2947 51.25 24.522 51.1424 34.7493 50.9272L35.6955 50.9073L35.6764 50C35.5903 45.9091 35.487 41.8182 35.3665 37.7273C35.3196 36.1364 35.2701 34.5455 35.218 32.9546ZM34.2805 32.9546H35.218L35.2022 32.471L34.7493 32.4858V33.4233L34.2805 32.9546Z" fill="#C8C4BF" mask="url(#path-5-inside-3_441_78)"/>
<path d="M54.4995 71H52.0898C52.0419 71 52.018 70.9727 52.018 70.918L52.0385 64.9502L49.229 56.4702C49.2153 56.4155 49.2358 56.3882 49.2905 56.3882H51.6284C51.6967 56.3882 51.7377 56.4155 51.7514 56.4702L53.2998 62.1201L54.8789 56.4702C54.8925 56.4155 54.9267 56.3882 54.9814 56.3882H57.3398C57.3945 56.3882 57.415 56.4155 57.4013 56.4702L54.561 64.8682L54.5815 70.918C54.5815 70.9727 54.5542 71 54.4995 71Z" fill="#E3E1DE"/>
<path d="M43.2305 71H40.8721C40.8037 71 40.7695 70.9658 40.7695 70.8975L40.8105 56.4702C40.8105 56.4155 40.8379 56.3882 40.8926 56.3882H44.9326C46.2178 56.3882 47.2329 56.7812 47.978 57.5674C48.73 58.3467 49.106 59.4097 49.106 60.7563C49.106 61.7407 48.9111 62.5986 48.5215 63.3301C48.125 64.0547 47.6123 64.6152 46.9834 65.0117C46.3545 65.4082 45.6709 65.6064 44.9326 65.6064H43.333V70.8975C43.333 70.9658 43.2988 71 43.2305 71ZM44.9326 58.8799L43.333 58.9004V63.0635H44.9326C45.377 63.0635 45.7632 62.8516 46.0913 62.4277C46.4194 61.9971 46.5835 61.4399 46.5835 60.7563C46.5835 60.2095 46.4365 59.7617 46.1426 59.4131C45.8486 59.0576 45.4453 58.8799 44.9326 58.8799Z" fill="#E3E1DE"/>
<path d="M31.9512 71H29.5723C29.5176 71 29.4902 70.9658 29.4902 70.8975L29.5312 56.4702C29.5312 56.4155 29.5586 56.3882 29.6133 56.3882H32.1768C32.2314 56.3882 32.2793 56.4155 32.3203 56.4702L34.2378 59.2388L36.145 56.4702C36.186 56.4155 36.2373 56.3882 36.2988 56.3882H38.8726C38.9341 56.3882 38.9648 56.4155 38.9648 56.4702L39.0059 70.8975C39.0059 70.9658 38.9785 71 38.9238 71H36.5449C36.4902 71 36.4629 70.9658 36.4629 70.8975L36.4424 60.1821L34.2378 63.3813L32.0537 60.1821L32.0332 70.8975C32.0332 70.9658 32.0059 71 31.9512 71Z" fill="#E3E1DE"/>
<path d="M23.6968 71.2051C22.9585 71.2051 22.2749 71.0137 21.646 70.6309C21.0171 70.248 20.5146 69.7354 20.1387 69.0928C19.7695 68.4434 19.585 67.7358 19.585 66.9702L19.626 56.4702C19.626 56.4155 19.6533 56.3882 19.708 56.3882H22.0664C22.1211 56.3882 22.1484 56.4155 22.1484 56.4702V66.9702C22.1484 67.4419 22.2988 67.8452 22.5996 68.1802C22.9004 68.5083 23.2661 68.6724 23.6968 68.6724C24.1479 68.6724 24.5239 68.5083 24.8247 68.1802C25.1255 67.8452 25.2759 67.4419 25.2759 66.9702V56.4702C25.2759 56.4155 25.3032 56.3882 25.3579 56.3882H27.7163C27.771 56.3882 27.7983 56.4155 27.7983 56.4702L27.8394 66.9702C27.8394 67.7427 27.6548 68.4536 27.2856 69.103C26.9097 69.7456 26.4106 70.2583 25.7886 70.6411C25.1665 71.0171 24.4692 71.2051 23.6968 71.2051Z" fill="#E3E1DE"/>
<path d="M12.1611 71H9.78223C9.72754 71 9.7002 70.9658 9.7002 70.8975L9.74121 56.4702C9.74121 56.4155 9.76855 56.3882 9.82324 56.3882H14.0684C14.8271 56.3882 15.5244 56.5728 16.1602 56.9419C16.7959 57.311 17.3018 57.8066 17.6777 58.4287C18.0605 59.0508 18.252 59.7549 18.252 60.541C18.252 61.0537 18.1733 61.5186 18.0161 61.9355C17.8589 62.3525 17.6743 62.7046 17.4624 62.9917C17.2573 63.2788 17.0693 63.4907 16.8984 63.6274C17.6572 64.4683 18.0366 65.4561 18.0366 66.5908L18.0571 70.8975C18.0571 70.9658 18.0229 71 17.9546 71H15.5757C15.521 71 15.4937 70.9795 15.4937 70.9385V66.5908C15.4937 66.085 15.3159 65.6475 14.9604 65.2783C14.605 64.9092 14.1675 64.7246 13.6479 64.7246H12.2637L12.2432 70.8975C12.2432 70.9658 12.2158 71 12.1611 71ZM14.0684 58.9004H12.2637V62.2021H14.0684C14.499 62.2021 14.8818 62.0415 15.2168 61.7202C15.5586 61.3989 15.7295 61.0059 15.7295 60.541C15.7295 60.0967 15.5654 59.7139 15.2373 59.3926C14.9092 59.0645 14.5195 58.9004 14.0684 58.9004Z" fill="#E3E1DE"/>
<path d="M4.09131 71.2051C3.33252 71.2051 2.64893 71.0171 2.04053 70.6411C1.42529 70.2651 0.929688 69.7593 0.553711 69.1235C0.18457 68.4878 0 67.7769 0 66.9907V60.3359C0 59.5703 0.187988 58.873 0.563965 58.2441C0.933105 57.6084 1.42871 57.1025 2.05078 56.7266C2.67285 56.3438 3.35303 56.1523 4.09131 56.1523C4.86377 56.1523 5.56104 56.3369 6.18311 56.7061C6.80518 57.082 7.29736 57.5845 7.65967 58.2134C8.02881 58.8423 8.21338 59.5498 8.21338 60.3359V61.2998C8.21338 61.3545 8.1792 61.3818 8.11084 61.3818H5.75244C5.69775 61.3818 5.67041 61.3545 5.67041 61.2998V60.5C5.67041 59.9668 5.52002 59.5259 5.21924 59.1772C4.91846 58.8286 4.54248 58.6543 4.09131 58.6543C3.68799 58.6543 3.3291 58.8218 3.01465 59.1567C2.7002 59.4917 2.54297 59.8848 2.54297 60.3359V66.9907C2.54297 67.4487 2.69678 67.8452 3.00439 68.1802C3.31201 68.5083 3.67432 68.6724 4.09131 68.6724C4.54248 68.6724 4.91846 68.5117 5.21924 68.1904C5.52002 67.8623 5.67041 67.4624 5.67041 66.9907V65.9551H4.2041C4.12891 65.9551 4.09131 65.9209 4.09131 65.8525V63.5044C4.09131 63.436 4.12891 63.4019 4.2041 63.4019H8.13135C8.18604 63.4019 8.21338 63.436 8.21338 63.5044V66.9907C8.21338 67.7769 8.02881 68.4878 7.65967 69.1235C7.28369 69.7593 6.78809 70.2651 6.17285 70.6411C5.55762 71.0171 4.86377 71.2051 4.09131 71.2051Z" fill="#E3E1DE"/>
</svg>
