<svg width="50" height="50" viewBox="0 0 50 50" fill="none" xmlns="http://www.w3.org/2000/svg">
<mask id="path-1-inside-1_361_358" fill="white">
<path d="M13.6362 0H30.6817V30.6818H13.6362V0Z"/>
</mask>
<path d="M13.6362 -0.46875C13.6362 -0.15625 13.6362 0.15625 13.6362 0.46875C15.2271 0.520833 16.818 0.570312 18.409 0.617188C22.4999 0.737723 26.5908 0.84104 30.6817 0.927136L29.7545 0C29.5393 10.2273 29.4317 20.4545 29.4317 30.6818L30.6817 29.4318C24.9999 29.4318 19.318 29.465 13.6362 29.5315L14.7866 30.6818C14.6856 22.0455 14.5079 13.4091 14.2534 4.77273C14.2065 3.18182 14.1571 1.59091 14.105 0C13.7925 0 13.48 0 13.1675 0C13.1154 1.59091 13.0659 3.18182 13.019 4.77273C12.7646 13.4091 12.5869 22.0455 12.4859 30.6818L12.4995 31.8455L13.6362 31.8322C19.318 31.8986 24.9999 31.9318 30.6817 31.9318C30.6817 31.9318 30.6817 31.9318 30.6817 31.9318H31.9317V30.6818C31.9317 20.4545 31.8241 10.2273 31.6088 0L31.5889 -0.94623L30.6817 -0.927136C26.5908 -0.84104 22.4999 -0.737723 18.409 -0.617188C16.818 -0.570312 15.2271 -0.520833 13.6362 -0.46875ZM13.6362 0.46875V-0.46875L13.1527 -0.452919L13.1675 0H14.105L13.6362 0.46875Z" fill="#C8C4BF" mask="url(#path-1-inside-1_361_358)"/>
<mask id="path-3-inside-2_361_358" fill="white">
<path d="M32.9546 40.9091H50V10.2272H32.9546V40.9091Z"/>
</mask>
<path d="M32.9546 41.3778C32.9546 41.0653 32.9546 40.7528 32.9546 40.4403C34.5455 40.3882 36.1364 40.3387 37.7273 40.2919C41.8182 40.1713 45.9091 40.068 50 39.9819L49.0729 40.9091C48.8577 30.6818 48.75 20.4545 48.75 10.2272L50 11.4772C44.3182 11.4772 38.6364 11.444 32.9546 11.3776L34.1049 10.2272C34.004 18.8636 33.8262 27.5 33.5718 36.1363C33.5249 37.7272 33.4754 39.3181 33.4233 40.9091C33.1108 40.9091 32.7983 40.9091 32.4858 40.9091C32.4338 39.3181 32.3843 37.7272 32.3374 36.1363C32.0829 27.5 31.9052 18.8636 31.8042 10.2272L31.8178 9.0636L32.9546 9.07689C38.6364 9.01046 44.3182 8.97724 50 8.97724C50 8.97724 50 8.97724 50 8.97724H51.25V10.2272C51.25 20.4545 51.1424 30.6818 50.9272 40.9091L50.9073 41.8553L50 41.8362C45.9091 41.7501 41.8182 41.6468 37.7273 41.5262C36.1364 41.4794 34.5455 41.4299 32.9546 41.3778ZM32.9546 40.4403V41.3778L32.471 41.362L32.4858 40.9091H33.4233L32.9546 40.4403Z" fill="#C8C4BF" mask="url(#path-3-inside-2_361_358)"/>
<mask id="path-5-inside-3_361_358" fill="white">
<path d="M30.6816 32.9546V50H-0.000177383V32.9546H30.6816Z"/>
</mask>
<path d="M31.1504 32.9546C30.8379 32.9546 30.5254 32.9546 30.2129 32.9546C30.1608 34.5455 30.1113 36.1364 30.0645 37.7273C29.9439 41.8182 29.8406 45.9091 29.7545 50L30.6816 49.0729C20.4544 48.8577 10.2271 48.75 -0.000177383 48.75L1.24982 50C1.24982 44.3182 1.21661 38.6364 1.15017 32.9546L-0.000177383 34.1049C8.63618 34.004 17.2726 33.8262 25.9089 33.5718C27.4998 33.5249 29.0907 33.4754 30.6816 33.4233C30.6816 33.1108 30.6816 32.7983 30.6816 32.4858C29.0907 32.4338 27.4998 32.3843 25.9089 32.3374C17.2726 32.0829 8.63618 31.9052 -0.000177383 31.8042L-1.16382 31.8178L-1.15053 32.9546C-1.21696 38.6364 -1.25018 44.3182 -1.25018 50C-1.25018 50 -1.25018 50 -1.25018 50V51.25H-0.000177383C10.2271 51.25 20.4544 51.1424 30.6816 50.9272L31.6279 50.9073L31.6088 50C31.5227 45.9091 31.4194 41.8182 31.2988 37.7273C31.252 36.1364 31.2025 34.5455 31.1504 32.9546ZM30.2129 32.9546H31.1504L31.1346 32.471L30.6816 32.4858V33.4233L30.2129 32.9546Z" fill="#E3E1DE" mask="url(#path-5-inside-3_361_358)"/>
</svg>
